<svg width="96" height="96" viewBox="0 0 96 96" fill="none" xmlns="http://www.w3.org/2000/svg">
<path d="M20 82L26 66H70L76 82" stroke="#5952B2" stroke-width="4" stroke-miterlimit="10" stroke-linecap="round" stroke-linejoin="round"/>
<path d="M28 54C33.5228 54 38 49.5228 38 44C38 38.4772 33.5228 34 28 34C22.4772 34 18 38.4772 18 44C18 49.5228 22.4772 54 28 54Z" stroke="#5952B2" stroke-width="4" stroke-miterlimit="10" stroke-linecap="round" stroke-linejoin="round"/>
<path d="M68 54C73.5228 54 78 49.5228 78 44C78 38.4772 73.5228 34 68 34C62.4772 34 58 38.4772 58 44C58 49.5228 62.4772 54 68 54Z" stroke="#5952B2" stroke-width="4" stroke-miterlimit="10" stroke-linecap="round" stroke-linejoin="round"/>
<path d="M84 14H12C7.58172 14 4 17.5817 4 22V74C4 78.4183 7.58172 82 12 82H84C88.4183 82 92 78.4183 92 74V22C92 17.5817 88.4183 14 84 14Z" stroke="#5952B2" stroke-width="4" stroke-miterlimit="10" stroke-linecap="round" stroke-linejoin="round"/>
<path d="M28 34H68" stroke="#5952B2" stroke-width="4" stroke-miterlimit="10" stroke-linecap="round" stroke-linejoin="round"/>
</svg>
