<svg width="48" height="48" viewBox="0 0 48 48" fill="none" xmlns="http://www.w3.org/2000/svg">
<path d="M21 22V32L29 27L21 22Z" stroke="white" stroke-width="2" stroke-miterlimit="10" stroke-linecap="round" stroke-linejoin="round"/>
<path d="M28.2438 11.757C27.6866 11.1997 27.0252 10.7577 26.2971 10.4561C25.5691 10.1545 24.7888 9.99927 24.0008 9.99927C23.2128 9.99927 22.4325 10.1545 21.7045 10.4561C20.9765 10.7577 20.315 11.1997 19.7578 11.757" stroke="white" stroke-width="2" stroke-miterlimit="10" stroke-linecap="round" stroke-linejoin="round"/>
<path d="M33.8996 6.10003C32.5996 4.79986 31.0562 3.7685 29.3575 3.06485C27.6589 2.36119 25.8382 1.99902 23.9996 1.99902C22.161 1.99902 20.3404 2.36119 18.6417 3.06485C16.9431 3.7685 15.3996 4.79986 14.0996 6.10003" stroke="white" stroke-width="2" stroke-miterlimit="10" stroke-linecap="round" stroke-linejoin="round"/>
<path d="M12 12H6C4.93913 12 3.92172 12.4214 3.17157 13.1716C2.42143 13.9217 2 14.9391 2 16V38C2 39.0609 2.42143 40.0783 3.17157 40.8284C3.92172 41.5786 4.93913 42 6 42H42C43.0609 42 44.0783 41.5786 44.8284 40.8284C45.5786 40.0783 46 39.0609 46 38V16C46 14.9391 45.5786 13.9217 44.8284 13.1716C44.0783 12.4214 43.0609 12 42 12H36" stroke="white" stroke-width="2" stroke-miterlimit="10" stroke-linecap="round" stroke-linejoin="round"/>
</svg>
