<svg width="96" height="96" viewBox="0 0 96 96" fill="none" xmlns="http://www.w3.org/2000/svg">
<path d="M42 44V64L58 54L42 44Z" stroke="#5952B2" stroke-width="4" stroke-miterlimit="10" stroke-linecap="round" stroke-linejoin="round"/>
<path d="M56.4876 23.514C55.3733 22.3995 54.0503 21.5154 52.5943 20.9122C51.1383 20.309 49.5777 19.9985 48.0016 19.9985C46.4256 19.9985 44.865 20.309 43.409 20.9122C41.9529 21.5154 40.63 22.3995 39.5156 23.514" stroke="#5952B2" stroke-width="4" stroke-miterlimit="10" stroke-linecap="round" stroke-linejoin="round"/>
<path d="M67.7992 12.2001C65.1991 9.59972 62.1123 7.537 58.715 6.12969C55.3177 4.72238 51.6765 3.99805 47.9992 3.99805C44.322 3.99805 40.6807 4.72238 37.2834 6.12969C33.8861 7.537 30.7993 9.59972 28.1992 12.2001" stroke="#5952B2" stroke-width="4" stroke-miterlimit="10" stroke-linecap="round" stroke-linejoin="round"/>
<path d="M24 24H12C9.87827 24 7.84344 24.8429 6.34315 26.3431C4.84285 27.8434 4 29.8783 4 32V76C4 78.1217 4.84285 80.1566 6.34315 81.6569C7.84344 83.1571 9.87827 84 12 84H84C86.1217 84 88.1566 83.1571 89.6569 81.6569C91.1571 80.1566 92 78.1217 92 76V32C92 29.8783 91.1571 27.8434 89.6569 26.3431C88.1566 24.8429 86.1217 24 84 24H72" stroke="#5952B2" stroke-width="4" stroke-miterlimit="10" stroke-linecap="round" stroke-linejoin="round"/>
</svg>
