<svg width="44" height="64" viewBox="0 0 44 64" fill="none" xmlns="http://www.w3.org/2000/svg">
<g clip-path="url(#clip0)">
<path d="M21.5867 43.3988C14.8516 43.3988 9.37305 37.8951 9.37305 31.129V12.2698C9.39818 5.50375 14.8516 0 21.5867 0C25.3814 0 28.8997 1.71677 31.2369 4.7211C32.1919 5.95819 31.9657 7.72544 30.7343 8.68481C29.5029 9.64418 27.7437 9.41696 26.7888 8.17988C25.5322 6.5641 23.6474 5.62998 21.6118 5.62998C17.9929 5.62998 15.0275 8.58383 15.0275 12.2446V31.1037C15.0275 34.7393 17.9678 37.7183 21.6118 37.7183C25.2558 37.7183 28.1961 34.7645 28.1961 31.1037V20.8032C26.1605 21.2576 23.572 21.4343 20.8579 20.6517C19.35 20.2225 18.4956 18.6572 18.9228 17.1424C19.35 15.6276 20.9081 14.7692 22.416 15.1984C26.1102 16.2588 29.6285 14.3653 29.6537 14.3653C30.5333 13.8856 31.5888 13.8856 32.4432 14.3905C33.2977 14.8955 33.8254 15.8296 33.8254 16.8394V31.1542C33.8003 37.8951 28.3217 43.3988 21.5867 43.3988Z" fill="#5952B2"/>
<path d="M34.6304 58.3449H26.488C25.3319 58.3449 24.4021 57.4108 24.4021 56.2495V56.1232C24.4021 55.1386 25.1058 54.2802 26.0607 54.0783C35.7864 52.0081 43.1246 43.3232 43.1749 32.9722C43.1749 31.4826 42.0691 30.1698 40.5864 30.0436C38.9278 29.9173 37.5456 31.2301 37.5456 32.8712C37.5456 41.7075 30.3832 48.9027 21.5874 48.9027C12.8168 48.9027 5.67958 41.758 5.62932 32.9722C5.62932 31.4321 4.44817 30.0941 2.89005 30.0436C1.30681 29.9931 0 31.2806 0 32.8712C0 43.2727 7.33822 52.0081 17.089 54.0783C18.0691 54.2802 18.7728 55.1386 18.7728 56.1232V56.2242C18.7728 57.3856 17.8429 58.3197 16.6869 58.3197H8.79581C6.8356 58.3197 5.22723 59.582 5.22723 61.1473C5.22723 62.7126 6.8356 63.9749 8.79581 63.9749H34.6304C36.5906 63.9749 38.199 62.7126 38.199 61.1473C38.199 59.6073 36.5906 58.3449 34.6304 58.3449Z" fill="#5952B2"/>
</g>
<defs>
<clipPath id="clip0">
<rect width="43.2" height="64" fill="white"/>
</clipPath>
</defs>
</svg>
