<svg width="282" height="80" viewBox="0 0 282 80" fill="none" xmlns="http://www.w3.org/2000/svg">
<path d="M26.9838 54.2485C18.565 54.2485 11.7168 47.3688 11.7168 38.9112V15.3373C11.7482 6.87968 18.565 0 26.9838 0C31.7273 0 36.1252 2.14596 39.0466 5.90138C40.2404 7.44773 39.9576 9.65681 38.4184 10.856C36.8791 12.0552 34.6802 11.7712 33.4864 10.2249C31.9158 8.20513 29.5597 7.03748 27.0152 7.03748C22.4917 7.03748 18.7849 10.7298 18.7849 15.3057V38.8797C18.7849 43.4241 22.4603 47.1479 27.0152 47.1479C31.5702 47.1479 35.2456 43.4556 35.2456 38.8797V26.0039C32.7011 26.572 29.4655 26.7929 26.0728 25.8146C24.188 25.2781 23.1199 23.3215 23.654 21.428C24.188 19.5345 26.1356 18.4615 28.0205 18.998C32.6383 20.3235 37.0362 17.9566 37.0676 17.9566C38.1671 17.357 39.4864 17.357 40.5545 17.9882C41.6226 18.6193 42.2822 19.787 42.2822 21.0493V38.9428C42.2508 47.3688 35.4027 54.2485 26.9838 54.2485Z" fill="white"/>
<path d="M43.288 72.931H33.11C31.6649 72.931 30.5026 71.7633 30.5026 70.3116V70.1538C30.5026 68.9231 31.3822 67.8501 32.5759 67.5976C44.733 65.0099 53.9058 54.1538 53.9686 41.215C53.9686 39.3531 52.5864 37.712 50.733 37.5542C48.6597 37.3964 46.9319 39.0375 46.9319 41.0887C46.9319 52.1341 37.9791 61.1282 26.9843 61.1282C16.0209 61.1282 7.09948 52.1972 7.03665 41.215C7.03665 39.2899 5.56021 37.6173 3.61257 37.5542C1.63351 37.4911 0 39.1006 0 41.0887C0 54.0907 9.17278 65.0099 21.3613 67.5976C22.5864 67.8501 23.466 68.9231 23.466 70.1538V70.2801C23.466 71.7318 22.3037 72.8994 20.8586 72.8994H10.9948C8.5445 72.8994 6.53403 74.4773 6.53403 76.4339C6.53403 78.3905 8.5445 79.9684 10.9948 79.9684H43.288C45.7382 79.9684 47.7487 78.3905 47.7487 76.4339C47.7487 74.5089 45.7382 72.931 43.288 72.931Z" fill="white"/>
<path d="M89.68 23.17H94.12V31.69C92.98 32.55 91.66 33.21 90.16 33.67C88.66 34.13 87.15 34.36 85.63 34.36C83.45 34.36 81.49 33.9 79.75 32.98C78.01 32.04 76.64 30.75 75.64 29.11C74.66 27.45 74.17 25.58 74.17 23.5C74.17 21.42 74.66 19.56 75.64 17.92C76.64 16.26 78.02 14.97 79.78 14.05C81.54 13.11 83.52 12.64 85.72 12.64C87.56 12.64 89.23 12.95 90.73 13.57C92.23 14.19 93.49 15.09 94.51 16.27L91.39 19.15C89.89 17.57 88.08 16.78 85.96 16.78C84.62 16.78 83.43 17.06 82.39 17.62C81.35 18.18 80.54 18.97 79.96 19.99C79.38 21.01 79.09 22.18 79.09 23.5C79.09 24.8 79.38 25.96 79.96 26.98C80.54 28 81.34 28.8 82.36 29.38C83.4 29.94 84.58 30.22 85.9 30.22C87.3 30.22 88.56 29.92 89.68 29.32V23.17ZM102.775 19.99C103.335 19.21 104.085 18.62 105.025 18.22C105.985 17.82 107.085 17.62 108.325 17.62V21.94C107.805 21.9 107.455 21.88 107.275 21.88C105.935 21.88 104.885 22.26 104.125 23.02C103.365 23.76 102.985 24.88 102.985 26.38V34H98.3045V17.86H102.775V19.99ZM126.771 25.99C126.771 26.05 126.741 26.47 126.681 27.25H114.471C114.691 28.25 115.211 29.04 116.031 29.62C116.851 30.2 117.871 30.49 119.091 30.49C119.931 30.49 120.671 30.37 121.311 30.13C121.971 29.87 122.581 29.47 123.141 28.93L125.631 31.63C124.111 33.37 121.891 34.24 118.971 34.24C117.151 34.24 115.541 33.89 114.141 33.19C112.741 32.47 111.661 31.48 110.901 30.22C110.141 28.96 109.761 27.53 109.761 25.93C109.761 24.35 110.131 22.93 110.871 21.67C111.631 20.39 112.661 19.4 113.961 18.7C115.281 17.98 116.751 17.62 118.371 17.62C119.951 17.62 121.381 17.96 122.661 18.64C123.941 19.32 124.941 20.3 125.661 21.58C126.401 22.84 126.771 24.31 126.771 25.99ZM118.401 21.16C117.341 21.16 116.451 21.46 115.731 22.06C115.011 22.66 114.571 23.48 114.411 24.52H122.361C122.201 23.5 121.761 22.69 121.041 22.09C120.321 21.47 119.441 21.16 118.401 21.16ZM146.537 17.86V31.3C146.537 34.26 145.767 36.46 144.227 37.9C142.687 39.34 140.437 40.06 137.477 40.06C135.917 40.06 134.437 39.87 133.037 39.49C131.637 39.11 130.477 38.56 129.557 37.84L131.417 34.48C132.097 35.04 132.957 35.48 133.997 35.8C135.037 36.14 136.077 36.31 137.117 36.31C138.737 36.31 139.927 35.94 140.687 35.2C141.467 34.48 141.857 33.38 141.857 31.9V31.21C140.637 32.55 138.937 33.22 136.757 33.22C135.277 33.22 133.917 32.9 132.677 32.26C131.457 31.6 130.487 30.68 129.767 29.5C129.047 28.32 128.687 26.96 128.687 25.42C128.687 23.88 129.047 22.52 129.767 21.34C130.487 20.16 131.457 19.25 132.677 18.61C133.917 17.95 135.277 17.62 136.757 17.62C139.097 17.62 140.877 18.39 142.097 19.93V17.86H146.537ZM137.687 29.38C138.927 29.38 139.937 29.02 140.717 28.3C141.517 27.56 141.917 26.6 141.917 25.42C141.917 24.24 141.517 23.29 140.717 22.57C139.937 21.83 138.927 21.46 137.687 21.46C136.447 21.46 135.427 21.83 134.627 22.57C133.827 23.29 133.427 24.24 133.427 25.42C133.427 26.6 133.827 27.56 134.627 28.3C135.427 29.02 136.447 29.38 137.687 29.38ZM158.572 34.24C156.872 34.24 155.342 33.89 153.982 33.19C152.642 32.47 151.592 31.48 150.832 30.22C150.072 28.96 149.692 27.53 149.692 25.93C149.692 24.33 150.072 22.9 150.832 21.64C151.592 20.38 152.642 19.4 153.982 18.7C155.342 17.98 156.872 17.62 158.572 17.62C160.272 17.62 161.792 17.98 163.132 18.7C164.472 19.4 165.522 20.38 166.282 21.64C167.042 22.9 167.422 24.33 167.422 25.93C167.422 27.53 167.042 28.96 166.282 30.22C165.522 31.48 164.472 32.47 163.132 33.19C161.792 33.89 160.272 34.24 158.572 34.24ZM158.572 30.4C159.772 30.4 160.752 30 161.512 29.2C162.292 28.38 162.682 27.29 162.682 25.93C162.682 24.57 162.292 23.49 161.512 22.69C160.752 21.87 159.772 21.46 158.572 21.46C157.372 21.46 156.382 21.87 155.602 22.69C154.822 23.49 154.432 24.57 154.432 25.93C154.432 27.29 154.822 28.38 155.602 29.2C156.382 30 157.372 30.4 158.572 30.4ZM175.021 19.99C175.581 19.21 176.331 18.62 177.271 18.22C178.231 17.82 179.331 17.62 180.571 17.62V21.94C180.051 21.9 179.701 21.88 179.521 21.88C178.181 21.88 177.131 22.26 176.371 23.02C175.611 23.76 175.231 24.88 175.231 26.38V34H170.551V17.86H175.021V19.99ZM199.947 25.75L197.127 28.69V34H192.297V13H197.127V22.81L206.427 13H211.827L203.127 22.36L212.337 34H206.667L199.947 25.75ZM221.18 34.24C219.48 34.24 217.95 33.89 216.59 33.19C215.25 32.47 214.2 31.48 213.44 30.22C212.68 28.96 212.3 27.53 212.3 25.93C212.3 24.33 212.68 22.9 213.44 21.64C214.2 20.38 215.25 19.4 216.59 18.7C217.95 17.98 219.48 17.62 221.18 17.62C222.88 17.62 224.4 17.98 225.74 18.7C227.08 19.4 228.13 20.38 228.89 21.64C229.65 22.9 230.03 24.33 230.03 25.93C230.03 27.53 229.65 28.96 228.89 30.22C228.13 31.48 227.08 32.47 225.74 33.19C224.4 33.89 222.88 34.24 221.18 34.24ZM221.18 30.4C222.38 30.4 223.36 30 224.12 29.2C224.9 28.38 225.29 27.29 225.29 25.93C225.29 24.57 224.9 23.49 224.12 22.69C223.36 21.87 222.38 21.46 221.18 21.46C219.98 21.46 218.99 21.87 218.21 22.69C217.43 23.49 217.04 24.57 217.04 25.93C217.04 27.29 217.43 28.38 218.21 29.2C218.99 30 219.98 30.4 221.18 30.4ZM218.09 15.64C217.49 15.64 216.99 15.45 216.59 15.07C216.19 14.67 215.99 14.17 215.99 13.57C215.99 12.97 216.19 12.48 216.59 12.1C216.99 11.7 217.49 11.5 218.09 11.5C218.69 11.5 219.18 11.7 219.56 12.1C219.96 12.48 220.16 12.97 220.16 13.57C220.16 14.17 219.96 14.67 219.56 15.07C219.18 15.45 218.69 15.64 218.09 15.64ZM224.15 15.64C223.55 15.64 223.05 15.45 222.65 15.07C222.27 14.67 222.08 14.17 222.08 13.57C222.08 12.97 222.27 12.48 222.65 12.1C223.05 11.7 223.55 11.5 224.15 11.5C224.75 11.5 225.25 11.7 225.65 12.1C226.05 12.48 226.25 12.97 226.25 13.57C226.25 14.17 226.05 14.67 225.65 15.07C225.25 15.45 224.75 15.64 224.15 15.64ZM242.968 17.62C244.968 17.62 246.578 18.22 247.798 19.42C249.038 20.62 249.658 22.4 249.658 24.76V34H244.978V25.48C244.978 24.2 244.698 23.25 244.138 22.63C243.578 21.99 242.768 21.67 241.708 21.67C240.528 21.67 239.588 22.04 238.888 22.78C238.188 23.5 237.838 24.58 237.838 26.02V34H233.158V17.86H237.628V19.75C238.248 19.07 239.018 18.55 239.938 18.19C240.858 17.81 241.868 17.62 242.968 17.62ZM253.9 17.86H258.58V34H253.9V17.86ZM256.24 15.61C255.38 15.61 254.68 15.36 254.14 14.86C253.6 14.36 253.33 13.74 253.33 13C253.33 12.26 253.6 11.64 254.14 11.14C254.68 10.64 255.38 10.39 256.24 10.39C257.1 10.39 257.8 10.63 258.34 11.11C258.88 11.59 259.15 12.19 259.15 12.91C259.15 13.69 258.88 14.34 258.34 14.86C257.8 15.36 257.1 15.61 256.24 15.61ZM279.574 17.86V31.3C279.574 34.26 278.804 36.46 277.264 37.9C275.724 39.34 273.474 40.06 270.514 40.06C268.954 40.06 267.474 39.87 266.074 39.49C264.674 39.11 263.514 38.56 262.594 37.84L264.454 34.48C265.134 35.04 265.994 35.48 267.034 35.8C268.074 36.14 269.114 36.31 270.154 36.31C271.774 36.31 272.964 35.94 273.724 35.2C274.504 34.48 274.894 33.38 274.894 31.9V31.21C273.674 32.55 271.974 33.22 269.794 33.22C268.314 33.22 266.954 32.9 265.714 32.26C264.494 31.6 263.524 30.68 262.804 29.5C262.084 28.32 261.724 26.96 261.724 25.42C261.724 23.88 262.084 22.52 262.804 21.34C263.524 20.16 264.494 19.25 265.714 18.61C266.954 17.95 268.314 17.62 269.794 17.62C272.134 17.62 273.914 18.39 275.134 19.93V17.86H279.574ZM270.724 29.38C271.964 29.38 272.974 29.02 273.754 28.3C274.554 27.56 274.954 26.6 274.954 25.42C274.954 24.24 274.554 23.29 273.754 22.57C272.974 21.83 271.964 21.46 270.724 21.46C269.484 21.46 268.464 21.83 267.664 22.57C266.864 23.29 266.464 24.24 266.464 25.42C266.464 26.6 266.864 27.56 267.664 28.3C268.464 29.02 269.484 29.38 270.724 29.38ZM79.84 49.96H73.12V46H91.42V49.96H84.7V67H79.84V49.96ZM103.515 50.62C105.515 50.62 107.125 51.22 108.345 52.42C109.585 53.62 110.205 55.4 110.205 57.76V67H105.525V58.48C105.525 57.2 105.245 56.25 104.685 55.63C104.125 54.99 103.315 54.67 102.255 54.67C101.075 54.67 100.135 55.04 99.4349 55.78C98.7349 56.5 98.3849 57.58 98.3849 59.02V67H93.7049V44.74H98.3849V52.54C99.0049 51.92 99.7549 51.45 100.635 51.13C101.515 50.79 102.475 50.62 103.515 50.62ZM130.433 58.99C130.433 59.05 130.403 59.47 130.343 60.25H118.133C118.353 61.25 118.873 62.04 119.693 62.62C120.513 63.2 121.533 63.49 122.753 63.49C123.593 63.49 124.333 63.37 124.973 63.13C125.633 62.87 126.243 62.47 126.803 61.93L129.293 64.63C127.773 66.37 125.553 67.24 122.633 67.24C120.813 67.24 119.203 66.89 117.803 66.19C116.403 65.47 115.323 64.48 114.563 63.22C113.803 61.96 113.423 60.53 113.423 58.93C113.423 57.35 113.793 55.93 114.533 54.67C115.293 53.39 116.323 52.4 117.623 51.7C118.943 50.98 120.413 50.62 122.033 50.62C123.613 50.62 125.043 50.96 126.323 51.64C127.603 52.32 128.603 53.3 129.323 54.58C130.063 55.84 130.433 57.31 130.433 58.99ZM122.063 54.16C121.003 54.16 120.113 54.46 119.393 55.06C118.673 55.66 118.233 56.48 118.073 57.52H126.023C125.863 56.5 125.423 55.69 124.703 55.09C123.983 54.47 123.103 54.16 122.063 54.16ZM162.565 46L153.475 67H148.675L139.615 46H144.865L151.255 61L157.735 46H162.565ZM170.467 67.24C168.767 67.24 167.237 66.89 165.877 66.19C164.537 65.47 163.487 64.48 162.727 63.22C161.967 61.96 161.587 60.53 161.587 58.93C161.587 57.33 161.967 55.9 162.727 54.64C163.487 53.38 164.537 52.4 165.877 51.7C167.237 50.98 168.767 50.62 170.467 50.62C172.167 50.62 173.687 50.98 175.027 51.7C176.367 52.4 177.417 53.38 178.177 54.64C178.937 55.9 179.317 57.33 179.317 58.93C179.317 60.53 178.937 61.96 178.177 63.22C177.417 64.48 176.367 65.47 175.027 66.19C173.687 66.89 172.167 67.24 170.467 67.24ZM170.467 63.4C171.667 63.4 172.647 63 173.407 62.2C174.187 61.38 174.577 60.29 174.577 58.93C174.577 57.57 174.187 56.49 173.407 55.69C172.647 54.87 171.667 54.46 170.467 54.46C169.267 54.46 168.277 54.87 167.497 55.69C166.717 56.49 166.327 57.57 166.327 58.93C166.327 60.29 166.717 61.38 167.497 62.2C168.277 63 169.267 63.4 170.467 63.4ZM182.445 50.86H187.125V67H182.445V50.86ZM184.785 48.61C183.925 48.61 183.225 48.36 182.685 47.86C182.145 47.36 181.875 46.74 181.875 46C181.875 45.26 182.145 44.64 182.685 44.14C183.225 43.64 183.925 43.39 184.785 43.39C185.645 43.39 186.345 43.63 186.885 44.11C187.425 44.59 187.695 45.19 187.695 45.91C187.695 46.69 187.425 47.34 186.885 47.86C186.345 48.36 185.645 48.61 184.785 48.61ZM199.269 67.24C197.549 67.24 195.999 66.89 194.619 66.19C193.259 65.47 192.189 64.48 191.409 63.22C190.649 61.96 190.269 60.53 190.269 58.93C190.269 57.33 190.649 55.9 191.409 54.64C192.189 53.38 193.259 52.4 194.619 51.7C195.999 50.98 197.549 50.62 199.269 50.62C200.969 50.62 202.449 50.98 203.709 51.7C204.989 52.4 205.919 53.41 206.499 54.73L202.869 56.68C202.029 55.2 200.819 54.46 199.239 54.46C198.019 54.46 197.009 54.86 196.209 55.66C195.409 56.46 195.009 57.55 195.009 58.93C195.009 60.31 195.409 61.4 196.209 62.2C197.009 63 198.019 63.4 199.239 63.4C200.839 63.4 202.049 62.66 202.869 61.18L206.499 63.16C205.919 64.44 204.989 65.44 203.709 66.16C202.449 66.88 200.969 67.24 199.269 67.24ZM224.798 58.99C224.798 59.05 224.768 59.47 224.708 60.25H212.498C212.718 61.25 213.238 62.04 214.058 62.62C214.878 63.2 215.898 63.49 217.118 63.49C217.958 63.49 218.698 63.37 219.338 63.13C219.998 62.87 220.608 62.47 221.168 61.93L223.658 64.63C222.138 66.37 219.918 67.24 216.998 67.24C215.178 67.24 213.568 66.89 212.168 66.19C210.768 65.47 209.688 64.48 208.928 63.22C208.168 61.96 207.788 60.53 207.788 58.93C207.788 57.35 208.158 55.93 208.898 54.67C209.658 53.39 210.688 52.4 211.988 51.7C213.308 50.98 214.778 50.62 216.398 50.62C217.978 50.62 219.408 50.96 220.688 51.64C221.968 52.32 222.968 53.3 223.688 54.58C224.428 55.84 224.798 57.31 224.798 58.99ZM216.428 54.16C215.368 54.16 214.478 54.46 213.758 55.06C213.038 55.66 212.598 56.48 212.438 57.52H220.388C220.228 56.5 219.788 55.69 219.068 55.09C218.348 54.47 217.468 54.16 216.428 54.16Z" fill="white"/>
</svg>
