<svg width="48" height="48" viewBox="0 0 48 48" fill="none" xmlns="http://www.w3.org/2000/svg">
<path d="M28 2C32.7739 2 37.3523 3.89642 40.7279 7.27208C44.1036 10.6477 46 15.2261 46 20" stroke="#5952B2" stroke-width="2" stroke-miterlimit="10" stroke-linecap="round" stroke-linejoin="round"/>
<path d="M28 10C30.6522 10 33.1957 11.0536 35.0711 12.9289C36.9464 14.8043 38 17.3478 38 20" stroke="#5952B2" stroke-width="2" stroke-miterlimit="10" stroke-linecap="round" stroke-linejoin="round"/>
<path d="M31.0406 28.9399L27.6176 33.2189C22.316 30.1031 17.8978 25.6852 14.7816 20.3839L19.0606 16.9609C19.562 16.5593 19.9164 16.0031 20.0683 15.379C20.2203 14.7548 20.1613 14.098 19.9006 13.5109L15.9996 4.72788C15.72 4.09777 15.2257 3.58746 14.6048 3.288C13.9839 2.98853 13.2768 2.91938 12.6096 3.09288L5.18562 5.01888C4.49277 5.1999 3.89039 5.6288 3.49265 6.22431C3.09491 6.81981 2.92945 7.54053 3.02762 8.24988C4.33067 17.5285 8.61902 26.1307 15.2444 32.7561C21.8698 39.3815 30.472 43.6698 39.7506 44.9729C40.4598 45.0708 41.1803 44.9052 41.7756 44.5075C42.3709 44.1098 42.7996 43.5075 42.9806 42.8149L44.9066 35.3899C45.0798 34.7228 45.0106 34.016 44.7114 33.3952C44.4121 32.7744 43.9023 32.28 43.2726 31.9999L34.4906 28.0999C33.9036 27.839 33.2466 27.78 32.6225 27.9319C31.9983 28.0839 31.4421 28.4383 31.0406 28.9399V28.9399Z" stroke="#5952B2" stroke-width="2" stroke-miterlimit="10" stroke-linecap="round" stroke-linejoin="round"/>
</svg>
