<svg width="96" height="96" viewBox="0 0 96 96" fill="none" xmlns="http://www.w3.org/2000/svg">
<path d="M55.998 4H39.998C35.5798 4 31.998 7.58172 31.998 12V68C31.998 72.4183 35.5798 76 39.998 76H55.998C60.4163 76 63.998 72.4183 63.998 68V12C63.998 7.58172 60.4163 4 55.998 4Z" stroke="#5952B2" stroke-width="4" stroke-miterlimit="10" stroke-linecap="round" stroke-linejoin="round"/>
<path d="M12.1981 59.7999C9.59777 57.1999 7.53505 54.1131 6.12774 50.7157C4.72043 47.3184 3.99609 43.6772 3.99609 40C3.99609 36.3227 4.72043 32.6815 6.12774 29.2842C7.53505 25.8869 9.59777 22.8 12.1981 20.2" stroke="#5952B2" stroke-width="4" stroke-miterlimit="10" stroke-linecap="round" stroke-linejoin="round"/>
<path d="M20.6827 28.686C19.1969 30.1718 18.0182 31.9356 17.2141 33.8769C16.41 35.8182 15.9961 37.8988 15.9961 40C15.9961 42.1013 16.41 44.1819 17.2141 46.1232C18.0182 48.0644 19.1969 49.8283 20.6827 51.314" stroke="#5952B2" stroke-width="4" stroke-miterlimit="10" stroke-linecap="round" stroke-linejoin="round"/>
<path d="M83.7969 59.7999C86.3972 57.1999 88.4599 54.1131 89.8673 50.7157C91.2746 47.3184 91.9989 43.6772 91.9989 40C91.9989 36.3227 91.2746 32.6815 89.8673 29.2842C88.4599 25.8869 86.3972 22.8 83.7969 20.2" stroke="#5952B2" stroke-width="4" stroke-miterlimit="10" stroke-linecap="round" stroke-linejoin="round"/>
<path d="M75.3125 28.686C76.7983 30.1718 77.9769 31.9356 78.7811 33.8769C79.5852 35.8182 79.9991 37.8988 79.9991 40C79.9991 42.1013 79.5852 44.1819 78.7811 46.1232C77.9769 48.0644 76.7983 49.8283 75.3125 51.314" stroke="#5952B2" stroke-width="4" stroke-miterlimit="10" stroke-linecap="round" stroke-linejoin="round"/>
<path d="M31.998 24H39.998" stroke="#5952B2" stroke-width="4" stroke-miterlimit="10" stroke-linecap="round" stroke-linejoin="round"/>
<path d="M55.998 24H63.998" stroke="#5952B2" stroke-width="4" stroke-miterlimit="10" stroke-linecap="round" stroke-linejoin="round"/>
<path d="M31.998 56H39.998" stroke="#5952B2" stroke-width="4" stroke-miterlimit="10" stroke-linecap="round" stroke-linejoin="round"/>
<path d="M55.998 56H63.998" stroke="#5952B2" stroke-width="4" stroke-miterlimit="10" stroke-linecap="round" stroke-linejoin="round"/>
<path d="M31.998 40H39.998" stroke="#5952B2" stroke-width="4" stroke-miterlimit="10" stroke-linecap="round" stroke-linejoin="round"/>
<path d="M55.998 40H63.998" stroke="#5952B2" stroke-width="4" stroke-miterlimit="10" stroke-linecap="round" stroke-linejoin="round"/>
<path d="M54 76V92" stroke="#5952B2" stroke-width="4" stroke-miterlimit="10" stroke-linecap="round" stroke-linejoin="round"/>
<path d="M42 76V92" stroke="#5952B2" stroke-width="4" stroke-miterlimit="10" stroke-linecap="round" stroke-linejoin="round"/>
</svg>
