<svg width="48" height="48" viewBox="0 0 48 48" fill="none" xmlns="http://www.w3.org/2000/svg">
<path d="M2 42H4C6.209 42 8 40.209 8 38V36L3.549 33.682C2.087 32.921 2.122 30.817 3.609 30.105L8 28V24L12.573 22.857C14.081 22.48 14.601 20.602 13.502 19.503L8 14V4" stroke="white" stroke-width="2" stroke-miterlimit="10" stroke-linecap="round" stroke-linejoin="round"/>
<path d="M16 32L22 24V12C22 9.791 23.791 8 26 8H42C44.209 8 46 9.791 46 12V28C46 30.209 44.209 32 42 32H28H16Z" stroke="white" stroke-width="2" stroke-miterlimit="10" stroke-linecap="round" stroke-linejoin="round"/>
<path d="M30 16H38" stroke="white" stroke-width="2" stroke-miterlimit="10" stroke-linecap="round" stroke-linejoin="round"/>
<path d="M30 24H38" stroke="white" stroke-width="2" stroke-miterlimit="10" stroke-linecap="round" stroke-linejoin="round"/>
</svg>
