<svg width="180" height="56" viewBox="0 0 180 56" fill="none" xmlns="http://www.w3.org/2000/svg">
<path opacity="0.1" d="M5 24.9616C5.09346 20.867 5.572 19.2853 8.35537 17.2066C10.3731 15.6998 12.3773 13.9268 14.9738 13.9268C20.381 13.9268 24.515 20.6832 27.1947 24.6857C31.7878 31.546 37.7264 21.7977 41.1395 18.8925C45.1214 15.5031 49.9679 12.2986 54.5918 9.81943C61.0909 6.33482 62.9773 22.6466 63.4266 25.5747C64.3137 31.3567 64.7714 37.1115 66.2279 42.8012C66.9075 45.4561 67.7794 50.0058 70.9377 50.7708C73.6177 51.4199 76.3617 50.6607 78.3872 48.8703C86.0479 42.0994 89.4286 31.1786 93.5634 22.1723C95.8746 17.1381 98.6533 8.15653 104.861 6.32508C108.623 5.21505 111.84 7.05717 113.726 10.1873C117.382 16.2544 120.229 23.4027 128.841 20.7929C143.253 16.4254 159.97 20.7334 174 24.4099" stroke="#5952B2" stroke-width="10" stroke-linecap="round" stroke-linejoin="round"/>
</svg>
